<svg width="25" height="24" viewBox="0 0 25 24" fill="none" xmlns="http://www.w3.org/2000/svg">
<g clip-path="url(#clip0_530_26255)">
<path d="M17.3601 7.10028H15.7828C15.6484 7.10028 15.5389 6.99005 15.5389 6.85474V6.60608H15.865C16.2498 6.60608 16.5615 6.29224 16.5615 5.90497V3.89996C16.5615 3.5127 16.2498 3.19885 15.865 3.19885H15.6792L15.9972 0.793762C16.0238 0.593445 15.963 0.391296 15.8308 0.239319C15.6986 0.0871582 15.5077 0 15.3071 0H10.5231C10.3223 0 10.1313 0.0871582 9.99912 0.239319C9.86691 0.391296 9.80617 0.593445 9.83272 0.793762L10.1508 3.19885H9.96493C9.5803 3.19885 9.26841 3.5127 9.26841 3.89996V5.90497C9.26841 6.29224 9.5803 6.60608 9.96493 6.60608H10.291V6.85474C10.291 6.99005 10.1815 7.10028 10.0471 7.10028H8.46986C7.19848 7.10028 6.16406 8.14178 6.16406 9.42188V21.6784C6.16406 22.9585 7.19848 24 8.46986 24H17.3603C18.6316 24 19.6659 22.9585 19.6659 21.6784V9.42188C19.6659 8.14178 18.6316 7.10028 17.3601 7.10028ZM7.55693 21.6784V9.42188C7.55693 8.91504 7.96648 8.50269 8.46986 8.50269H10.0471C10.9495 8.50269 11.6839 7.76331 11.6839 6.85474V6.60608H14.1463V6.85474C14.1463 7.76349 14.8804 8.50269 15.7828 8.50269H17.3601C17.8635 8.50269 18.273 8.91504 18.273 9.42188V21.6784C18.273 22.1852 17.8637 22.5976 17.3603 22.5976H8.46986C7.96648 22.5976 7.55693 22.1852 7.55693 21.6784ZM11.3183 1.4024H14.5116L14.2741 3.19885H11.556L11.3183 1.4024ZM10.6613 4.60126H15.1687V5.20367H10.6613V4.60126Z" fill="#959998"/>
</g>
<defs>
<clipPath id="clip0_530_26255">
<rect width="23.8367" height="24" fill="white" transform="translate(0.996094)"/>
</clipPath>
</defs>
</svg>
