<svg width="24" height="25" viewBox="0 0 24 25" fill="none" xmlns="http://www.w3.org/2000/svg">
<path d="M19.6618 21.2372H4.33671C3.08002 21.2372 2.05859 20.2157 2.05859 18.9591V8.60414C2.05859 7.34745 3.08002 6.32617 4.33671 6.32617H9.30705C9.65 6.32617 9.92834 6.60451 9.92834 6.94746C9.92834 7.29042 9.65 7.56876 9.30705 7.56876H4.33671C3.76593 7.56876 3.30118 8.03336 3.30118 8.60414V18.9591C3.30118 19.5298 3.76593 19.9946 4.33671 19.9946H19.6618C20.2326 19.9946 20.6973 19.5298 20.6973 18.9591V8.60414C20.6973 8.03336 20.2326 7.56876 19.6618 7.56876H14.6915C14.3485 7.56876 14.0702 7.29042 14.0702 6.94746C14.0702 6.60451 14.3485 6.32617 14.6915 6.32617H19.6618C20.9185 6.32617 21.9399 7.34745 21.9399 8.60414V18.9591C21.9399 20.2157 20.9185 21.2372 19.6618 21.2372Z" fill="#959998"/>
<path d="M13.8629 9.22503H10.1352C9.33581 9.22503 8.68555 8.57477 8.68555 7.7754V6.11858C8.68555 5.31921 9.33581 4.66895 10.1352 4.66895H13.8629C14.6623 4.66895 15.3126 5.31921 15.3126 6.11858V7.7754C15.3126 8.57477 14.6623 9.22503 13.8629 9.22503ZM10.1352 5.91153C10.0208 5.91153 9.92813 6.00436 9.92813 6.11858V7.7754C9.92813 7.88977 10.0208 7.98245 10.1352 7.98245H13.8629C13.9773 7.98245 14.07 7.88977 14.07 7.7754V6.11858C14.07 6.00436 13.9773 5.91153 13.8629 5.91153H10.1352Z" fill="#959998"/>
<path d="M8.27209 14.6098C7.13053 14.6098 6.20117 13.6803 6.20117 12.5388C6.20117 11.3973 7.13053 10.4678 8.27209 10.4678C9.41366 10.4678 10.343 11.3973 10.343 12.5388C10.343 13.6803 9.41366 14.6098 8.27209 14.6098ZM8.27209 11.7104C7.81568 11.7104 7.44376 12.0823 7.44376 12.5388C7.44376 12.9953 7.81568 13.3672 8.27209 13.3672C8.72851 13.3672 9.10043 12.9953 9.10043 12.5388C9.10043 12.0823 8.72851 11.7104 8.27209 11.7104Z" fill="#959998"/>
<path d="M11.3791 18.7521C11.0362 18.7521 10.7578 18.4738 10.7578 18.1308V17.7166C10.7578 17.1458 10.2931 16.6811 9.7223 16.6811H6.82304C6.25226 16.6811 5.78751 17.1458 5.78751 17.7166V18.1308C5.78751 18.4738 5.50917 18.7521 5.16621 18.7521C4.82326 18.7521 4.54492 18.4738 4.54492 18.1308V17.7166C4.54492 16.4599 5.56635 15.4385 6.82304 15.4385H9.7223C10.979 15.4385 12.0004 16.4599 12.0004 17.7166V18.1308C12.0004 18.4738 11.7221 18.7521 11.3791 18.7521Z" fill="#959998"/>
<path d="M18.8336 12.1244H14.2775C13.9346 12.1244 13.6562 11.8461 13.6562 11.5031C13.6562 11.1602 13.9346 10.8818 14.2775 10.8818H18.8336C19.1766 10.8818 19.4549 11.1602 19.4549 11.5031C19.4549 11.8461 19.1766 12.1244 18.8336 12.1244Z" fill="#959998"/>
<path d="M18.8336 15.4379H14.2775C13.9346 15.4379 13.6562 15.1596 13.6562 14.8166C13.6562 14.4736 13.9346 14.1953 14.2775 14.1953H18.8336C19.1766 14.1953 19.4549 14.4736 19.4549 14.8166C19.4549 15.1596 19.1766 15.4379 18.8336 15.4379Z" fill="#959998"/>
<path d="M18.8336 18.7523H14.2775C13.9346 18.7523 13.6562 18.474 13.6562 18.1311C13.6562 17.7881 13.9346 17.5098 14.2775 17.5098H18.8336C19.1766 17.5098 19.4549 17.7881 19.4549 18.1311C19.4549 18.474 19.1766 18.7523 18.8336 18.7523Z" fill="#959998"/>
</svg>
