<svg width="24" height="25" viewBox="0 0 24 25" fill="none" xmlns="http://www.w3.org/2000/svg">
    <g>
        <path d="M5.9668 6.16602H18.0287V11.2885C18.0287 14.1175 15.7353 16.4109 12.9063 16.4109H11.0892C8.26019 16.4109 5.9668 14.1175 5.9668 11.2885V6.16602Z" stroke="#959998" stroke-width="1.5" style="color: #fff;"/>
        <path d="M12 16.4111L12 23.5394" stroke="#959998" stroke-width="1.5" stroke-miterlimit="10"/>
        <path d="M6.6875 11.7812C6.27329 11.7812 5.9375 12.117 5.9375 12.5312C5.9375 12.9455 6.27329 13.2812 6.6875 13.2812V11.7812ZM13.1187 13.2812C13.5329 13.2812 13.8687 12.9455 13.8687 12.5312C13.8687 12.117 13.5329 11.7812 13.1187 11.7812V13.2812ZM6.6875 13.2812H13.1187V11.7812H6.6875V13.2812Z" fill="#959998"/>
        <path d="M8.57031 22.7832H15.4281" stroke="#959998" stroke-width="1.5" stroke-miterlimit="10" stroke-linecap="round"/>
    </g>
</svg>
